<svg height="96" viewBox="0 0 96 96" width="96" xmlns="http://www.w3.org/2000/svg"><g stroke-linecap="round" stroke-linejoin="round" stroke-width="2.5"><g fill="none"><g stroke="#333f48"><path d="m49.33 27.124c-1.551-.034-1.659-.025-1.659-.025h-3.608c-1.501 0-3.013.108-4.499.318-3.277-2.734-7.399-4.224-11.677-4.224-2.502 0-4.929.5-7.211 1.485-.732.312-1.232 1.006-1.297 1.808-.065.818.328 1.603 1.023 2.041 1.773 1.117 3.09 2.821 3.276 4.908l.081.908c-3.503 2.185-5.704 5.236-7.84 8.196-2.136 2.965-4.165 5.774-7.324 7.335-2.47.274-4.359 3.336-4.359 7.195s1.959 7.028 4.493 7.205l6.307 1.932c2.039.576 3.907 1.679 5.387 3.202l3.256 3.336c1.851 1.9 3.035 4.396 3.347 7.028l.132 1.166c.395 3.474 3.334 6.099 6.831 6.099h.059c3.465 0 6.382-2.583 6.818-6.016l.436-2.126h13.265l.436 2.131c.285 2.277 1.717 4.325 3.918 5.389.906.438 1.914.622 2.92.622.194 0 .394-.005.588-.022 1.609-.145 3.126-.877 4.273-2.066 1.114-1.168 1.819-2.691 1.975-4.289.339-3.363 2.039-6.361 4.66-8.228 1.028-.726 1.975-1.523 2.814-2.362 3.46-3.466 7.587-8.944 7.587-15.347 0-5.457-1.754-10.606-4.752-14.944l-1.641-2.163c-3.751-4.466-9.272-7.803-14.542-9.202-.397-.105-.82-.202-1.263-.292"/><path d="m77.172 36.369c2.422-2.049 8.589-9.749 5.992-13.94-1.18-1.903-3.073-2.328-4.626-1.645s-3.422 2.911-1.925 6.366 7.14 4.5 9.438 4.004 4.533-1.676 5.712-4.719"/><path d="m8.596 49.872c3.164 0 4.302 3.732 4.302 7.2s-.896 7.2-4.168 7.2"/></g><path d="m61.206 35.16c.534-.997.837-2.135.837-3.345 0-3.917-3.176-7.093-7.093-7.093s-7.093 3.176-7.093 7.093c0 .826.141 1.62.401 2.357" stroke="#ef6a00"/><path d="m52.28 8.966v8.61" stroke="#333f48"/><path d="m57.868 11.565v3.412" stroke="#333f48"/></g><g stroke="#333f48"><circle cx="26.759" cy="46.893" fill="#333f48" r="1.863"/><path d="m44.657 34.834c5.777 0 13.364-1.472 20.383 3.164" fill="none"/></g></g></svg>