<svg height="96" viewBox="0 0 96 96" width="96" xmlns="http://www.w3.org/2000/svg"><g fill="none" stroke-width="2.5"><path d="m76.14 67.957h-69.07c-1.695 0-3.07-1.374-3.07-3.07v-33.787c0-1.695 1.374-3.07 3.07-3.07h69.07" stroke="#333f48" stroke-linejoin="round"/><path d="m85.349 28.03h3.581c1.695 0 3.07 1.374 3.07 3.07v33.787c0 1.695-1.374 3.07-3.07 3.07h-3.581" stroke="#333f48" stroke-linejoin="round"/><g stroke-linecap="round"><g stroke="#333f48" stroke-linejoin="round"><path d="m31.558 39.274h17.736"/><path d="m31.558 48.252h35.401"/><path d="m31.558 57.231h35.401"/></g><path d="m23.995 44.49c.068-5.722-8.159-5.671-8.06-.065 0 2.673 3.132 3.556 4.442 4.139s3.781 1.141 3.781 4.172c0 5.166-8.367 5.346-8.221-.28" stroke="#ef6a00" stroke-miterlimit="10"/><path d="m19.898 38.2v2.01" stroke="#ef6a00" stroke-miterlimit="10"/><path d="m19.898 56.643v2.01" stroke="#ef6a00" stroke-miterlimit="10"/></g><g stroke-linejoin="round"><path d="m76.14 69.66 4.605 10.233 4.605-10.233v-50.945c0-1.13-.916-2.047-2.047-2.047h-5.116c-1.13 0-2.047.916-2.047 2.047z" stroke="#333f48"/><path d="m76.651 45.93h8.698" stroke="#333f48"/><path d="m80.744 17.491v20.393" stroke="#ef6a00" stroke-linecap="round"/></g></g></svg>