<svg height="96" viewBox="0 0 96 96" width="96" xmlns="http://www.w3.org/2000/svg"><g fill="none" stroke-linecap="round" stroke-linejoin="round" stroke-width="2.5"><path d="m20.223 54.966h-10.37c-1.002 0-1.815.912-1.815 2.037v25.617c0 1.125.812 2.037 1.815 2.037h10.37c1.002 0 1.815-.912 1.815-2.037v-25.617c0-1.125-.813-2.037-1.815-2.037z" stroke="#333f48"/><path d="m42.198 43.316h-10.371c-1.002 0-1.815.912-1.815 2.037v37.267c0 1.125.812 2.037 1.815 2.037h10.371c1.002 0 1.815-.912 1.815-2.037v-37.267c0-1.125-.812-2.037-1.815-2.037z" stroke="#333f48"/><path d="m64.173 54.966h-10.371c-1.002 0-1.815.912-1.815 2.037v25.617c0 1.125.812 2.037 1.815 2.037h10.371c1.002 0 1.815-.912 1.815-2.037v-25.617c0-1.125-.812-2.037-1.815-2.037z" stroke="#333f48"/><path d="m86.147 48.749h-10.371c-1.002 0-1.815.912-1.815 2.037v31.834c0 1.125.812 2.037 1.815 2.037h10.371c1.002 0 1.815-.912 1.815-2.037v-31.834c0-1.125-.812-2.037-1.815-2.037z" stroke="#333f48"/><g stroke="#ef6a00"><circle cx="15.038" cy="36.509" r="5.302"/><circle cx="80.962" cy="16.645" r="5.302"/><circle cx="58.987" cy="29.627" r="5.302"/><circle cx="37.013" cy="16.645" r="5.302"/><path d="m33.081 20.199-14.114 12.758"/><path d="m54.426 26.932-12.85-7.592"/><path d="m76.398 19.341-12.847 7.589"/></g></g></svg>