<svg height="96" viewBox="0 0 96 96" width="96" xmlns="http://www.w3.org/2000/svg"><g fill="none" stroke-linecap="round" stroke-width="2.5"><g stroke="#333f48" stroke-linejoin="round"><rect height="5.63" rx="1.175" width="65.778" x="5.423" y="71.354"/><path d="m8.763 70.107v-7.862c0-5.614 4.551-10.165 10.165-10.165h38.767c5.614 0 10.165 4.551 10.165 10.165v7.862"/><path d="m12.223 54.081 3.816-15.212c.857-3.416 3.928-5.812 7.449-5.812h29.646c3.522 0 6.592 2.395 7.449 5.812l3.816 15.212"/><path d="m19.327 77.597v5.197c0 1.537-1.246 2.782-2.782 2.782h-5.465c-1.537 0-2.782-1.246-2.782-2.782v-5.197"/><path d="m68.327 77.597v5.197c0 1.537-1.246 2.782-2.782 2.782h-5.465c-1.537 0-2.782-1.246-2.782-2.782v-5.197"/><path d="m59.927 38.055h-43.402"/><circle cx="18.391" cy="61.723" r="3.231"/><circle cx="59.224" cy="61.723" r="3.231"/><path d="m62.271 45.591c2.803 1.674 6.081 2.635 9.583 2.635 10.34 0 18.723-8.383 18.723-18.723s-8.383-18.723-18.723-18.723-18.723 8.383-18.723 18.723c0 1.022.082 2.025.24 3.003"/></g><path d="m76.254 25.144c.076-6.376-9.091-6.319-8.981-.073 0 2.978 3.49 3.962 4.949 4.612s4.213 1.271 4.213 4.649c0 5.756-9.323 5.957-9.16-.312" stroke="#ef6a00" stroke-miterlimit="10"/><path d="m71.688 18.135v2.239" stroke="#ef6a00" stroke-miterlimit="10"/><path d="m71.688 38.686v2.239" stroke="#ef6a00" stroke-miterlimit="10"/></g></svg>